<svg xmlns="http://www.w3.org/2000/svg" id="Group_63" width="34" height="25.898" data-name="Group 63" viewBox="0 0 34 25.898">
    <g id="Group_62" data-name="Group 62">
        <path id="Path_3272" fill="#ff453a" d="M31.012 61H2.988A2.993 2.993 0 0 0 0 63.988V83.91a2.993 2.993 0 0 0 2.988 2.99h28.024A2.993 2.993 0 0 0 34 83.91V63.988A2.993 2.993 0 0 0 31.012 61zm-.412 1.992L17.063 76.528 3.411 62.992zM1.992 83.5V64.391l9.594 9.509zM3.4 84.906l9.6-9.6 3.364 3.335a1 1 0 0 0 1.406 0l3.28-3.28 9.55 9.545zM32.008 83.5l-9.548-9.548 9.548-9.552z" data-name="Path 3272" transform="translate(0 -61)"/>
    </g>
</svg>
