<svg xmlns="http://www.w3.org/2000/svg" id="Group_61" width="27.001" height="27.001" data-name="Group 61" viewBox="0 0 27.001 27.001">
    <g id="Group_60" data-name="Group 60">
        <path id="Path_3271" fill="#ff9f0a" d="M24.834 17.723a15.33 15.33 0 0 1-4.814-.767 2.119 2.119 0 0 0-2.14.451L14.844 19.7A16.778 16.778 0 0 1 7.3 12.157L9.525 9.2a2.182 2.182 0 0 0 .537-2.211 15.354 15.354 0 0 1-.77-4.822A2.169 2.169 0 0 0 7.125 0H2.167A2.169 2.169 0 0 0 0 2.167 24.862 24.862 0 0 0 24.834 27 2.169 2.169 0 0 0 27 24.834V19.89a2.169 2.169 0 0 0-2.166-2.167zm.667 7.111a.667.667 0 0 1-.667.667A23.36 23.36 0 0 1 1.5 2.167a.667.667 0 0 1 .667-.667h4.958a.667.667 0 0 1 .667.667 16.821 16.821 0 0 0 .842 5.282.747.747 0 0 1-.237.769l-2.578 3.414a.751.751 0 0 0-.07.792 18.62 18.62 0 0 0 8.827 8.827.747.747 0 0 0 .794-.069l3.493-2.646a.662.662 0 0 1 .68-.158 16.843 16.843 0 0 0 5.293.845.667.667 0 0 1 .667.667z" data-name="Path 3271"/>
    </g>
</svg>
