<svg xmlns="http://www.w3.org/2000/svg" id="Group_59" width="21.386" height="33.18" data-name="Group 59" viewBox="0 0 21.386 33.18">
    <defs>
        <style>
            .cls-1{fill:#34c763}
        </style>
    </defs>
    <path id="Path_3269" d="M164.609 66.869a6.8 6.8 0 1 0-6.8 6.8 6.862 6.862 0 0 0 6.8-6.8zm-11.665 0a4.86 4.86 0 1 1 4.86 4.86 4.9 4.9 0 0 1-4.86-4.86z" class="cls-1" data-name="Path 3269" transform="translate(-147.112 -56.112)"/>
    <path id="Path_3270" d="M112.386 10.758a10.693 10.693 0 1 0-21.386 0c0 3.931 3.848 9.87 6.134 13.134C94.593 24.4 91 25.721 91 28.32c0 3.717 6.923 4.86 10.693 4.86s10.693-1.144 10.693-4.86c0-2.6-3.594-3.917-6.134-4.428 2.273-3.247 6.134-9.2 6.134-13.134zm-19.441 0a8.749 8.749 0 1 1 17.5 0c0 4.117-5.752 12.231-8.749 16.016-3-3.784-8.749-11.9-8.749-16.016zm17.5 17.562c0 1.624-4.761 2.916-8.749 2.916s-8.749-1.293-8.749-2.916c0-.774 1.737-2.115 5.449-2.675 1.418 1.924 2.485 3.215 2.551 3.3a.972.972 0 0 0 1.5 0c.066-.08 1.134-1.372 2.551-3.3 3.702.555 5.443 1.901 5.443 2.675z" class="cls-1" data-name="Path 3270" transform="translate(-91)"/>
</svg>
