<svg width="103" height="34" viewBox="0 0 103 34" fill="none" xmlns="http://www.w3.org/2000/svg">
<g id="Logo Dstock" clip-path="url(#clip0_10809_1275)">
<g id="Group">
<g id="Group_2">
<path id="Vector" d="M44.748 14.012C44.748 15.6314 44.3146 16.8276 43.4477 17.6031C42.5808 18.3787 41.2505 18.7665 39.4622 18.7665H31.1615V15.5659H38.9906C39.3723 15.5659 39.7103 15.5359 39.9993 15.473C40.2746 15.4239 40.4899 15.3338 40.6453 15.2027C40.9397 14.9815 41.0897 14.6183 41.0897 14.1185C41.0897 13.6051 40.9534 13.2174 40.6753 12.9607C40.5281 12.8487 40.3427 12.7722 40.1219 12.7313C39.8848 12.6903 39.5767 12.6685 39.1924 12.6685H35.6131C33.9393 12.6685 32.6663 12.2971 31.7994 11.5543C30.9843 10.8033 30.5781 9.64268 30.5781 8.07244C30.5781 6.41208 31.0116 5.18046 31.8784 4.38305C32.7317 3.59657 34.0647 3.20605 35.8721 3.20605H44.0747V6.42846L36.3273 6.43939C35.5531 6.43939 35.0161 6.57593 34.7135 6.84628C34.4109 7.08387 34.261 7.50715 34.261 8.11886C34.261 8.55034 34.3864 8.88623 34.6344 9.12928C34.937 9.36686 35.3568 9.48429 35.8966 9.48429H39.9011C41.6485 9.48429 42.8943 9.83657 43.6385 10.5439C44.3772 11.243 44.748 12.4008 44.748 14.012Z" fill="#808285"/>
<path id="Vector_2" d="M58.3757 6.37365H53.7551V18.7663H50.1785L50.1676 6.37365H45.5879V3.20312H58.3784V6.37365H58.3757Z" fill="#808285"/>
<path id="Vector_3" d="M74.2822 10.9536C74.2822 13.5725 73.6933 15.525 72.5157 16.8195C71.3435 18.1193 69.5607 18.7666 67.1591 18.7666C64.7084 18.7666 62.9092 18.1193 61.7643 16.8222C60.6193 15.5278 60.0469 13.5233 60.0469 10.8116C60.0469 8.2473 60.633 6.33297 61.8024 5.06859C62.961 3.82332 64.7465 3.20068 67.1591 3.20068C69.5716 3.20068 71.3626 3.83697 72.5348 5.10955C73.6988 6.40397 74.2822 8.35107 74.2822 10.9536ZM70.6429 10.9536C70.6429 9.30687 70.3594 8.09164 69.7924 7.30789C69.2254 6.54598 68.3476 6.16366 67.1563 6.16366C65.9978 6.16366 65.1309 6.53779 64.5503 7.28877C64.2613 7.69021 64.0432 8.17903 63.8987 8.75524C63.7543 9.33145 63.6834 10.0251 63.6834 10.8334C63.6834 12.5484 63.9669 13.7937 64.5339 14.5692C65.0873 15.353 65.9623 15.7435 67.1591 15.7435C68.3176 15.7435 69.1899 15.353 69.7733 14.5692C70.354 13.8073 70.6429 12.6003 70.6429 10.9536Z" fill="#808285"/>
<path id="Vector_4" d="M88.517 18.7664H82.8578C81.6583 18.7664 80.7151 18.6653 80.0227 18.4632C79.3167 18.2693 78.6379 17.9061 77.9809 17.3791C77.1768 16.7127 76.577 15.8744 76.1845 14.8667C75.781 13.8535 75.582 12.6465 75.582 11.2483C75.582 8.51746 76.1818 6.49116 77.3785 5.16943C78.5643 3.85589 80.418 3.19775 82.9423 3.19775H88.5143V6.31366H83.0077C82.3725 6.31366 81.8492 6.39831 81.4321 6.5649C81.0177 6.75879 80.6715 7.04826 80.3962 7.43058C79.8592 8.19522 79.592 9.51149 79.592 11.3821C79.592 12.9742 79.8455 14.0747 80.3526 14.6865C80.8378 15.2982 81.7238 15.604 83.0077 15.604H88.517V18.7664Z" fill="#808285"/>
<path id="Vector_5" d="M103.001 18.7666H98.4836L93.3941 11.8275V18.7666H89.8721V3.20068H93.3941V9.89947L98.6553 3.20068H102.941L96.987 10.7952L103.001 18.7666Z" fill="#808285"/>
</g>
<g id="Group_3">
<path id="Vector_6" d="M0 6.29443H9.53562C12.8941 6.29443 15.3693 7.17377 16.9695 8.92971C18.5615 10.6802 19.3629 13.4028 19.3629 17.1032C19.3629 19.0066 19.0958 20.6396 18.5615 22.0078C18.0272 23.3677 17.2203 24.4819 16.1544 25.3339C15.3311 26.0003 14.4588 26.47 13.5238 26.754C12.5915 27.0189 11.3021 27.1663 9.67192 27.1663H0V6.29443ZM9.44839 9.92374H4.38072V23.5316H9.44839C11.3893 23.5316 12.7332 23.0482 13.4638 22.0706C14.2026 21.0929 14.5651 19.3097 14.5651 16.729C14.5651 14.1511 14.2026 12.3815 13.4638 11.3984C12.7332 10.4126 11.392 9.92374 9.44839 9.92374Z" fill="#F7941D"/>
<g id="Group_4">
<path id="Vector_7" d="M0 33.5349V29.1655H11.7355C11.7355 29.1655 11.8228 29.1655 12.1117 29.1464C12.387 29.13 12.8014 29.0781 13.3112 28.9798C14.328 28.7887 15.6828 28.3954 16.9913 27.6608C19.5728 26.1315 22.1217 23.5891 22.1844 17.2098V16.336C22.1435 10.7323 20.1453 8.12975 17.9645 6.4967C15.7619 4.8855 13.0904 4.47041 12.1144 4.39941C11.8228 4.36937 11.7355 4.36937 11.7355 4.36937H11.7464H0V0H11.7546C11.9563 0.0136543 15.4157 0 19.123 2.06453C22.8522 4.07443 26.6141 8.61038 26.546 16.336V17.2098C26.6114 24.9272 22.8495 29.4632 19.123 31.4704C15.4157 33.5349 11.9563 33.524 11.7464 33.5349H0Z" fill="#808285"/>
</g>
</g>
<g id="Group_5">
<path id="Vector_8" d="M34.2388 24.5421H33.1266V27.3877H32.2652L32.2624 24.5421H31.1611V23.813H34.2388V24.5421Z" fill="#808285"/>
<path id="Vector_9" d="M40.1979 27.3875H39.2493L38.4996 26.033H37.75V27.3875H36.9131V23.8101H38.7395C39.173 23.8101 39.4864 23.9002 39.68 24.0804C39.8844 24.2579 39.988 24.5337 39.988 24.9079C39.988 25.1864 39.9253 25.4131 39.8027 25.5906C39.6936 25.749 39.5355 25.8609 39.3338 25.9183L40.1979 27.3875ZM39.1457 24.9188C39.1457 24.785 39.1075 24.6894 39.0339 24.6348C38.9494 24.5802 38.794 24.5529 38.5678 24.5529H37.75V25.2984H38.5678C38.7886 25.2984 38.9412 25.2683 39.0285 25.2083C39.1075 25.1482 39.1457 25.0526 39.1457 24.9188Z" fill="#808285"/>
<path id="Vector_10" d="M46.2765 27.3878H45.336L45.0225 26.5658H43.6268L43.3242 27.3878H42.4219L43.9157 23.8076H44.7663L46.2765 27.3878ZM44.739 25.8257L44.3137 24.7361L43.9076 25.8257H44.739Z" fill="#808285"/>
<path id="Vector_11" d="M52.0997 25.6591C52.0997 25.8203 52.0888 25.9677 52.0697 26.1015C52.0479 26.2353 52.0124 26.3664 51.9634 26.4948C51.868 26.7351 51.7317 26.9263 51.5517 27.0683C51.4127 27.1775 51.2601 27.2594 51.0965 27.3113C50.9248 27.3605 50.7094 27.385 50.4477 27.385H48.8066V23.8076H50.4314C50.9956 23.8076 51.4154 23.9578 51.688 24.2609C51.9634 24.5613 52.0997 25.0283 52.0997 25.6591ZM51.1919 25.5963C51.1919 25.1949 51.1374 24.9163 51.0311 24.7634C50.9193 24.6105 50.7149 24.5368 50.415 24.5368H49.6463V26.6614H50.415C50.7121 26.6614 50.9166 26.5876 51.0256 26.4374C51.1374 26.2845 51.1919 26.006 51.1919 25.5963Z" fill="#808285"/>
<path id="Vector_12" d="M57.6313 27.3849H56.3528C56.0829 27.3849 55.8675 27.3631 55.7122 27.3167C55.554 27.273 55.3987 27.1883 55.2515 27.0682C55.0688 26.9152 54.9352 26.7213 54.8453 26.492C54.7553 26.2598 54.709 25.9813 54.709 25.6618C54.709 25.0337 54.8453 24.5694 55.1152 24.2663C55.3823 23.9632 55.8021 23.813 56.3719 23.813H57.6313V24.5394H56.3855C56.1483 24.5394 55.9711 24.5967 55.8512 24.7114C55.7312 24.8289 55.6604 24.9954 55.6413 25.2166L57.6313 25.2221V25.9431H55.6358C55.6358 26.0632 55.6522 26.1697 55.6822 26.2626C55.7067 26.3527 55.7476 26.4264 55.8048 26.4838C55.9221 26.6039 56.1156 26.6667 56.3855 26.6667H57.6313V27.3849Z" fill="#808285"/>
<path id="Vector_13" d="M66.6208 27.3848H65.653C65.3314 27.3848 65.0888 27.3548 64.9225 27.2974C64.7562 27.2401 64.6117 27.1391 64.489 26.9998C64.4263 26.9315 64.3773 26.8632 64.3364 26.7977C64.2955 26.7349 64.2628 26.6612 64.2328 26.5738C64.1837 26.4181 64.1592 26.1996 64.1592 25.9211V23.8047H65.0042V25.8965C65.0042 25.9812 65.007 26.0604 65.0097 26.1314C65.0097 26.2051 65.0152 26.2652 65.0233 26.3089C65.0451 26.3826 65.0724 26.44 65.1024 26.4755C65.1324 26.5164 65.1624 26.5465 65.1923 26.5683C65.2251 26.5956 65.2714 26.6175 65.3259 26.6366C65.4295 26.6694 65.5604 26.6857 65.7185 26.6857H66.6235V27.3848H66.6208Z" fill="#808285"/>
<path id="Vector_14" d="M70.2141 27.3875H69.3418V23.8101H70.2141V27.3875Z" fill="#808285"/>
<path id="Vector_15" d="M76.3723 27.3875H75.2982L74.0879 25.7927V27.3875H73.251V23.8101H74.0879V25.3503L75.3391 23.8101H76.3586L74.9438 25.5578L76.3723 27.3875Z" fill="#808285"/>
<path id="Vector_16" d="M81.5951 27.3849H80.3166C80.0468 27.3849 79.8314 27.3631 79.676 27.3167C79.5179 27.273 79.3625 27.1883 79.2153 27.0682C79.0327 26.9152 78.8991 26.7213 78.8092 26.492C78.7192 26.2598 78.6729 25.9813 78.6729 25.6618C78.6729 25.0337 78.8091 24.5694 79.079 24.2663C79.3462 23.9632 79.766 23.813 80.3357 23.813H81.5951V24.5394H80.3494C80.1122 24.5394 79.935 24.5967 79.8151 24.7114C79.6951 24.8289 79.6242 24.9954 79.6051 25.2166L81.5951 25.2221V25.9431H79.5997C79.5997 26.0632 79.6161 26.1697 79.646 26.2626C79.6706 26.3527 79.7115 26.4264 79.7687 26.4838C79.8859 26.6039 80.0795 26.6667 80.3494 26.6667H81.5951V27.3849Z" fill="#808285"/>
<path id="Vector_17" d="M90.8527 24.998C90.8527 25.2137 90.8172 25.3967 90.7491 25.5523C90.67 25.7189 90.5664 25.85 90.4383 25.9429C90.3102 26.0357 90.1711 26.0958 90.0239 26.1286C89.9367 26.1449 89.8413 26.1586 89.7377 26.1668C89.6287 26.1777 89.5005 26.1832 89.3506 26.1832H88.541V27.3902H87.7041V23.8101H89.3206C89.5878 23.8101 89.8004 23.8237 89.9558 23.8538C90.0485 23.8701 90.1248 23.8893 90.1848 23.9084C90.2475 23.9329 90.302 23.9603 90.3511 23.993C90.5146 24.1023 90.6373 24.2415 90.7218 24.4108C90.809 24.5802 90.8527 24.774 90.8527 24.998ZM89.9367 24.998C89.9367 24.8396 89.8931 24.7249 89.8059 24.6566C89.7132 24.5884 89.5496 24.5529 89.3097 24.5529H88.541V25.4431H89.3533C89.4542 25.4431 89.5442 25.4349 89.6178 25.4185C89.6886 25.4021 89.7486 25.3721 89.8004 25.3311C89.8904 25.2574 89.9367 25.1482 89.9367 24.998Z" fill="#808285"/>
<path id="Vector_18" d="M96.9645 27.3875H96.0159L95.2662 26.033H94.5166V27.3875H93.6797V23.8101H95.5061C95.9396 23.8101 96.2531 23.9002 96.4466 24.0804C96.651 24.2579 96.7546 24.5337 96.7546 24.9079C96.7546 25.1864 96.6919 25.4131 96.5693 25.5906C96.4602 25.749 96.3021 25.8609 96.1004 25.9183L96.9645 27.3875ZM95.9123 24.9188C95.9123 24.785 95.8741 24.6894 95.8005 24.6348C95.716 24.5802 95.5606 24.5529 95.3344 24.5529H94.5166V25.2984H95.3344C95.5552 25.2984 95.7079 25.2683 95.7951 25.2083C95.8741 25.1482 95.9123 25.0526 95.9123 24.9188Z" fill="#808285"/>
<path id="Vector_19" d="M103 25.5961C103 26.2215 102.853 26.6858 102.561 26.9943C102.272 27.3029 101.828 27.4586 101.234 27.4586C100.626 27.4586 100.181 27.3029 99.8979 26.9943C99.6144 26.6858 99.4727 26.2079 99.4727 25.5606C99.4727 24.9489 99.6171 24.4929 99.9088 24.1898C100.195 23.8921 100.639 23.7446 101.236 23.7446C101.833 23.7446 102.278 23.8976 102.569 24.2007C102.856 24.5093 103 24.9762 103 25.5961ZM102.101 25.5961C102.101 25.2029 102.03 24.9134 101.891 24.7277C101.752 24.5448 101.534 24.4547 101.239 24.4547C100.953 24.4547 100.738 24.5448 100.593 24.7223C100.522 24.8179 100.468 24.9353 100.432 25.0718C100.397 25.2084 100.378 25.3749 100.378 25.5688C100.378 25.9785 100.449 26.2761 100.588 26.4591C100.724 26.6448 100.942 26.7404 101.239 26.7404C101.525 26.7404 101.743 26.6475 101.888 26.4591C102.027 26.2761 102.101 25.9894 102.101 25.5961Z" fill="#808285"/>
</g>
<g id="Group_6">
<path id="Vector_20" d="M103 21.4482H31.1611V21.6858H103V21.4482Z" fill="#808285"/>
</g>
<g id="Group_7">
<path id="Vector_21" d="M103 29.8398H31.1611V30.0774H103V29.8398Z" fill="#808285"/>
</g>
</g>
</g>
<defs>
<clipPath id="clip0_10809_1275">
<rect width="103" height="33.5349" fill="white"/>
</clipPath>
</defs>
</svg>
